<?xml version="1.0" standalone="no"?>
<!DOCTYPE svg PUBLIC "-//W3C//DTD SVG 20010904//EN"
 "http://www.w3.org/TR/2001/REC-SVG-20010904/DTD/svg10.dtd">
<svg version="1.0" xmlns="http://www.w3.org/2000/svg"
 width="512.000000pt" height="512.000000pt" viewBox="0 0 512.000000 512.000000"
 preserveAspectRatio="xMidYMid meet">

<g transform="translate(0.000000,512.000000) scale(0.100000,-0.100000)"
fill="#000000" stroke="none">
<path d="M889 4847 c-19 -14 -868 -1369 -883 -1408 -8 -21 -7 -35 4 -58 13
-27 2397 -2992 2479 -3083 27 -31 40 -38 72 -38 35 0 43 6 96 68 147 172 2440
3026 2453 3053 11 23 12 36 3 59 -16 41 -862 1392 -882 1407 -23 18 -3319 18
-3342 0z m1479 -165 c-10 -26 -893 -1101 -899 -1094 -4 4 -93 241 -197 527
-105 286 -195 532 -201 548 l-11 27 656 0 c361 0 654 -4 652 -8z m1565 -324
c-68 -183 -160 -431 -205 -551 -44 -120 -84 -217 -88 -215 -9 3 -890 1086
-890 1093 0 3 294 5 654 5 l653 0 -124 -332z m-904 -290 l460 -568 -929 0
-929 0 462 570 c254 313 465 568 468 567 4 -1 214 -257 468 -569z m-1910 -31
c106 -291 191 -530 188 -533 -2 -2 -242 -3 -534 -2 l-530 3 336 537 c185 296
338 534 342 530 3 -4 92 -245 198 -535z m3442 -27 l316 -505 -535 -3 c-294 -1
-537 0 -539 2 -3 2 302 830 387 1051 l11 29 22 -34 c12 -19 164 -262 338 -540z
m-2911 -1427 c150 -412 358 -979 461 -1262 107 -294 180 -506 169 -495 -29 31
-2010 2493 -2010 2499 0 3 249 5 554 5 l553 0 273 -747z m1895 730 c-4 -10
-218 -585 -476 -1278 -258 -693 -481 -1291 -496 -1329 -17 -45 -28 -64 -33
-55 -4 8 -224 606 -488 1329 -264 723 -484 1323 -487 1333 -7 16 44 17 990 17
946 0 997 -1 990 -17z m1303 8 c-4 -11 -2072 -2579 -2075 -2577 -2 1 213 582
477 1290 264 709 480 1290 480 1292 0 2 252 4 561 4 311 0 559 -4 557 -9z"/>
</g>
</svg>
