<?xml version="1.0" standalone="no"?>
<!DOCTYPE svg PUBLIC "-//W3C//DTD SVG 20010904//EN"
 "http://www.w3.org/TR/2001/REC-SVG-20010904/DTD/svg10.dtd">
<svg version="1.0" xmlns="http://www.w3.org/2000/svg"
 width="512.000000pt" height="512.000000pt" viewBox="0 0 512.000000 512.000000"
 preserveAspectRatio="xMidYMid meet">

<g transform="translate(0.000000,512.000000) scale(0.100000,-0.100000)"
fill="#000000" stroke="none">
<path d="M2822 5100 c-98 -26 -174 -71 -248 -144 -76 -77 -119 -152 -146 -258
-26 -104 -21 -212 15 -310 l24 -67 -376 -3 c-371 -3 -377 -3 -412 -26 -69 -43
-69 -39 -69 -527 0 -381 2 -441 16 -471 18 -37 62 -68 111 -79 l33 -7 0 -249
0 -249 -638 0 c-604 0 -643 -1 -716 -20 -101 -25 -176 -69 -252 -144 -75 -76
-119 -151 -144 -252 -19 -74 -20 -112 -20 -939 0 -827 1 -865 20 -939 25 -101
69 -176 144 -252 76 -75 151 -119 252 -144 76 -20 115 -20 2252 -20 l2174 0
39 22 c25 14 46 37 59 63 20 41 20 62 20 1582 l0 1541 44 11 c52 13 102 64
111 113 3 18 5 225 3 460 -3 413 -4 427 -24 454 -11 15 -33 37 -48 48 -26 20
-42 21 -408 24 -353 3 -379 4 -373 20 51 120 63 267 31 377 -43 146 -142 269
-272 337 -204 107 -427 85 -613 -62 l-52 -41 -38 34 c-129 116 -329 163 -499
117z m219 -295 c63 -22 118 -70 145 -129 22 -47 24 -64 24 -203 l0 -153 -152
0 c-140 0 -157 2 -204 24 -110 51 -170 187 -132 297 47 138 186 209 319 164z
m835 -13 c152 -79 184 -280 63 -401 -61 -62 -95 -71 -273 -71 l-158 0 4 153
c3 114 9 162 22 192 29 67 91 122 166 146 40 13 133 3 176 -19z m-666 -1027
l0 -255 -650 0 -650 0 0 255 0 255 650 0 650 0 0 -255z m1610 0 l0 -255 -652
2 -653 3 -3 240 c-1 132 0 245 2 252 4 10 139 13 656 13 l650 0 0 -255z
m-1610 -2010 l0 -1455 -279 0 -279 0 27 73 26 72 3 884 c2 856 2 887 -17 964
-11 43 -35 104 -53 135 -41 73 -137 169 -209 210 -74 42 -193 72 -286 72 l-73
0 0 250 0 250 570 0 570 0 0 -1455z m1450 0 l0 -1455 -575 0 -575 0 0 1455 0
1455 575 0 575 0 0 -1455z m-3460 205 l0 -450 -450 0 -450 0 0 344 c0 236 4
354 12 377 27 79 82 135 163 166 21 8 137 12 378 12 l347 1 0 -450z m1064 426
c50 -25 97 -72 122 -122 18 -36 19 -66 22 -396 l3 -358 -451 0 -450 0 0 450 0
451 358 -3 c330 -3 360 -4 396 -22z m-1064 -1636 l0 -451 -358 3 c-396 3 -397
3 -467 73 -70 70 -70 71 -73 468 l-3 357 451 0 450 0 0 -450z m1208 93 c-3
-397 -3 -398 -73 -468 -70 -70 -71 -70 -467 -73 l-358 -3 0 451 0 450 450 0
451 0 -3 -357z"/>
</g>
</svg>
