<?xml version="1.0" standalone="no"?>
<!DOCTYPE svg PUBLIC "-//W3C//DTD SVG 20010904//EN"
 "http://www.w3.org/TR/2001/REC-SVG-20010904/DTD/svg10.dtd">
<svg version="1.0" xmlns="http://www.w3.org/2000/svg"
 width="512.000000pt" height="512.000000pt" viewBox="0 0 512.000000 512.000000"
 preserveAspectRatio="xMidYMid meet">

<g transform="translate(0.000000,512.000000) scale(0.100000,-0.100000)"
fill="#000000" stroke="none">
<path d="M2662 5103 c-5 -10 -63 -233 -128 -495 l-119 -477 -25 23 c-43 40
-87 57 -152 57 -100 1 -182 -64 -209 -165 -33 -124 79 -266 211 -266 82 0 175
66 203 143 8 23 54 202 102 397 48 195 91 358 94 362 3 4 146 -83 316 -193
171 -110 317 -204 325 -209 13 -7 6 -45 -49 -267 -35 -142 -65 -259 -67 -261
-1 -2 -21 10 -44 27 -97 70 -223 56 -298 -34 -75 -92 -65 -215 24 -294 76 -66
163 -75 252 -24 74 42 83 66 187 478 123 487 175 702 175 725 0 12 -110 86
-372 251 -205 128 -383 235 -394 237 -14 3 -26 -3 -32 -15z m388 -293 c172
-107 314 -201 317 -207 3 -7 -7 -65 -23 -128 -22 -92 -31 -115 -42 -110 -13 5
-617 390 -634 404 -4 3 4 53 18 111 29 126 31 133 43 128 5 -2 150 -91 321
-198z m-739 -696 c41 -21 72 -91 63 -140 -19 -103 -142 -146 -224 -78 -64 55
-57 172 14 215 38 23 106 25 147 3z m755 -391 c34 -22 54 -64 54 -113 0 -79
-56 -133 -137 -133 -78 0 -139 69 -129 147 12 103 126 156 212 99z"/>
<path d="M283 4877 c-117 -117 -213 -218 -213 -224 0 -7 25 -39 56 -73 54 -58
56 -61 40 -79 -41 -45 10 -95 55 -55 19 17 22 16 76 -39 55 -54 56 -57 39 -76
-41 -45 10 -96 55 -55 19 17 22 16 76 -38 54 -54 55 -56 39 -79 -21 -31 -20
-56 3 -68 14 -8 25 -6 45 10 l27 21 43 -40 c64 -59 102 -76 167 -75 l56 1 733
-733 733 -734 -74 -79 c-86 -91 -132 -171 -155 -268 -20 -84 -14 -195 13 -277
l20 -57 -709 -783 c-471 -518 -717 -797 -730 -826 -39 -85 -1 -189 84 -230 54
-26 101 -26 153 -2 27 13 280 259 795 775 415 416 760 756 767 756 7 0 39 -16
72 -35 63 -37 119 -95 146 -151 9 -19 52 -175 96 -346 44 -172 85 -318 91
-325 14 -17 43 -16 58 2 17 21 -139 635 -182 717 -47 89 -114 144 -283 234
-163 86 -220 134 -269 223 -56 104 -69 207 -41 316 23 87 58 144 138 223 l72
72 165 -165 165 -165 6 -103 c4 -81 11 -114 31 -159 69 -150 246 -253 402
-234 l51 7 163 -163 162 -163 -110 -110 c-70 -70 -110 -117 -110 -131 0 -13
32 -51 84 -103 71 -69 88 -81 103 -72 24 13 763 754 763 765 0 19 -164 176
-184 176 -13 0 -61 -41 -128 -107 l-108 -108 -164 164 -165 164 6 47 c12 106
-42 245 -129 326 -77 72 -143 97 -264 102 l-101 4 -167 167 -167 167 80 77
c88 86 155 123 257 140 128 22 279 -28 374 -125 35 -36 70 -92 125 -199 44
-85 95 -169 120 -197 74 -82 125 -102 501 -196 188 -47 361 -93 385 -102 161
-64 315 -208 388 -364 128 -273 82 -579 -122 -810 -112 -127 -655 -662 -710
-699 -229 -155 -504 -174 -754 -51 -97 48 -220 158 -279 250 -41 63 -68 76
-95 44 -17 -21 11 -76 87 -167 97 -117 256 -218 414 -263 102 -29 330 -27 430
4 93 30 177 72 255 127 74 53 740 722 784 788 44 64 97 179 117 252 9 33 19
114 21 180 4 100 1 135 -16 210 -41 171 -145 340 -274 446 -121 98 -205 130
-592 228 -352 88 -403 106 -462 158 -36 31 -103 137 -103 163 0 8 180 195 401
415 220 220 419 421 441 448 34 40 45 47 77 47 98 0 244 64 310 136 64 68 119
196 166 380 21 84 19 111 -6 125 -33 17 -46 -4 -79 -128 -36 -138 -80 -253
-114 -298 -37 -48 -108 -95 -178 -117 -86 -26 -108 -24 -148 17 -18 19 -32 36
-29 39 2 2 29 16 59 31 77 38 169 97 175 113 8 21 -14 52 -36 52 -11 0 -35
-11 -52 -24 -44 -34 -190 -106 -214 -106 -10 0 -36 18 -57 39 l-38 39 12 54
c14 59 51 137 86 184 31 40 30 62 -2 76 -25 11 -29 10 -56 -22 -34 -39 -98
-165 -98 -192 0 -29 -17 -29 -49 -2 -28 23 -31 31 -31 82 1 104 69 227 154
277 71 41 185 84 331 124 160 44 354 85 362 77 3 -3 0 -46 -7 -96 -14 -96 -8
-120 31 -120 27 0 35 23 54 158 16 113 16 125 2 139 -19 20 -70 12 -327 -47
-268 -62 -453 -133 -540 -207 -80 -69 -140 -202 -140 -311 l0 -57 -113 -120
c-62 -66 -254 -275 -426 -465 -201 -222 -319 -344 -330 -342 -206 32 -346 -11
-499 -154 l-84 -77 -603 603 -603 603 -26 -17 c-14 -9 -26 -22 -26 -29 0 -6
354 -366 786 -798 l787 -787 -39 -25 c-39 -24 -134 -119 -134 -134 -1 -55 -28
-30 -935 877 l-915 915 97 97 97 98 87 -86 c78 -76 90 -84 108 -74 39 21 25
51 -65 140 -80 80 -85 87 -80 119 9 59 -12 115 -66 175 -47 53 -49 58 -34 75
20 22 20 45 0 62 -14 11 -21 10 -47 -4 l-31 -18 -55 55 c-52 53 -54 56 -38 74
42 46 -8 98 -54 56 -19 -18 -21 -17 -76 39 -54 54 -56 57 -40 75 42 46 -8 97
-55 55 -17 -15 -21 -13 -77 40 -33 32 -65 57 -72 57 -8 0 -109 -96 -226 -213z
m262 73 l29 -30 -38 -39 c-29 -30 -37 -45 -34 -67 2 -24 8 -30 32 -32 22 -3
37 5 67 34 l39 38 52 -51 51 -52 -36 -40 c-20 -23 -37 -47 -37 -55 0 -58 48
-62 102 -9 l38 37 55 -54 55 -54 -41 -42 c-34 -35 -40 -47 -35 -68 10 -40 51
-35 99 12 l39 37 44 -48 c35 -39 44 -56 44 -86 0 -34 -10 -47 -128 -164 -117
-115 -132 -127 -164 -127 -29 0 -46 9 -85 44 l-48 44 38 39 c44 46 48 78 12
95 -23 10 -29 8 -63 -25 -21 -20 -42 -37 -48 -37 -5 0 -32 22 -59 50 l-49 50
37 38 c41 42 47 76 18 92 -30 15 -38 13 -82 -27 l-40 -36 -52 51 -51 52 37 38
c38 39 46 69 25 90 -21 21 -51 13 -90 -25 l-38 -37 -32 32 -33 32 165 165 c91
91 167 165 171 165 3 0 18 -14 34 -30z m3640 -1077 c33 -31 102 -96 153 -146
l93 -89 -87 -94 c-47 -52 -89 -94 -92 -94 -4 1 -77 68 -162 150 l-155 149 90
90 c49 50 92 91 95 91 3 0 32 -26 65 -57z m-144 -342 l151 -144 -313 -313
-313 -313 -30 55 c-45 80 -108 148 -176 190 -59 36 -59 37 -42 58 56 71 557
616 564 614 4 -2 76 -68 159 -147z m-827 -1182 c77 -28 146 -94 180 -169 16
-34 26 -73 24 -90 -3 -30 -8 -25 -158 125 -137 137 -152 155 -128 155 15 0 52
-9 82 -21z m-14 -204 l205 -205 -19 -35 c-11 -19 -22 -35 -25 -35 -3 0 -105
99 -225 219 l-219 219 34 21 c19 12 36 21 39 21 3 0 97 -92 210 -205z m90
-346 c0 -4 -16 -14 -36 -24 l-37 -17 -203 203 c-112 112 -204 206 -204 209 0
3 9 20 21 39 l21 34 219 -219 c120 -120 219 -222 219 -225z m-340 95 l155
-156 -48 6 c-127 16 -242 131 -263 264 -4 23 -5 42 -3 42 2 0 74 -70 159 -156z
m785 -344 l-35 -35 -141 141 -141 141 28 42 27 42 149 -148 148 -148 -35 -35z
m-1518 172 c32 -32 86 -74 120 -93 l62 -35 -754 -754 -755 -755 -44 0 c-76 0
-127 75 -94 138 11 23 1395 1557 1403 1557 2 0 30 -26 62 -58z m1591 -369
l-333 -333 -37 37 -38 37 332 333 333 333 37 -37 38 -37 -332 -333z m-303 247
l140 -140 -35 -35 -35 -35 -149 149 -149 149 39 25 c22 14 41 26 44 26 3 1 68
-62 145 -139z"/>
<path d="M693 3134 c-259 -56 -498 -257 -601 -505 -168 -406 16 -885 413
-1075 121 -59 188 -75 330 -81 210 -9 387 45 546 165 270 205 395 577 303 902
-23 82 -87 206 -144 282 -116 153 -307 274 -495 313 -86 18 -268 18 -352 -1z
m353 -85 c46 -10 53 -16 62 -46 l10 -34 -91 -67 c-51 -37 -106 -78 -123 -90
l-31 -21 -119 85 c-65 47 -120 87 -122 89 -2 2 -1 18 3 35 8 35 26 45 109 60
64 11 235 6 302 -11z m-503 -82 c-5 -33 -4 -34 141 -138 l145 -104 1 -50 0
-50 -127 -93 c-118 -86 -131 -92 -163 -86 -19 3 -38 8 -41 10 -4 2 -37 72 -74
156 -37 84 -72 159 -78 166 -5 6 -24 12 -41 12 -31 1 -31 1 40 68 54 51 183
142 201 142 1 0 -1 -15 -4 -33z m739 -16 c41 -26 98 -72 128 -102 l54 -54 -29
-5 c-27 -5 -35 -17 -97 -155 -86 -191 -78 -179 -125 -189 -40 -8 -42 -7 -169
86 l-129 94 -3 46 -3 45 143 105 c139 101 143 105 143 141 0 20 3 37 6 37 4 0
40 -22 81 -49z m-974 -268 c5 -16 32 -78 60 -139 l50 -111 -113 -101 -113
-101 -41 22 c-39 21 -41 25 -41 67 1 108 52 293 100 361 16 22 29 29 55 29 27
0 35 -5 43 -27z m1252 -55 c47 -101 72 -212 68 -298 -3 -60 -5 -65 -35 -82
l-31 -19 -110 98 c-61 54 -111 103 -111 109 -1 6 16 49 38 95 21 46 48 105 59
132 18 42 24 47 52 47 29 0 34 -5 70 -82z m-446 -255 c-1 -4 -21 -70 -45 -145
l-42 -138 -153 0 -152 0 -47 141 c-41 121 -45 143 -33 155 7 8 63 49 123 93
l108 79 121 -89 c67 -48 120 -92 120 -96z m-587 -8 c19 -5 30 -30 69 -153 26
-81 48 -150 50 -153 2 -3 -7 -21 -20 -40 l-23 -34 -184 -10 c-176 -10 -184
-11 -195 -33 -10 -21 -13 -18 -42 45 -27 61 -62 164 -62 185 0 4 15 -1 32 -12
18 -11 39 -20 45 -20 7 0 72 54 145 120 76 68 139 118 148 115 8 -2 25 -6 37
-10z m882 -105 c73 -66 138 -120 143 -120 5 0 22 7 38 15 24 13 30 13 30 2 0
-21 -45 -148 -69 -195 l-22 -43 -19 23 c-17 22 -28 24 -196 33 l-178 10 -20
34 -19 33 48 152 c27 83 50 153 51 155 2 3 42 13 74 20 3 1 65 -53 139 -119z
m-357 -287 l19 -31 -61 -157 c-33 -87 -60 -167 -60 -178 0 -11 7 -29 17 -39
15 -17 12 -18 -95 -18 -68 0 -112 4 -112 10 0 6 4 10 9 10 27 0 18 47 -40 202
l-62 167 23 36 22 35 161 -2 161 -3 18 -32z m-402 -215 l52 -141 -23 -18 c-14
-11 -33 -16 -44 -13 -57 16 -192 92 -251 142 -87 73 -108 103 -100 136 7 28
20 30 222 34 l91 2 53 -142z m702 136 l96 -7 7 -31 c6 -29 0 -36 -70 -103 -57
-55 -99 -84 -168 -117 -120 -59 -129 -60 -159 -36 l-26 20 47 122 c26 68 51
131 54 141 7 19 51 22 219 11z"/>
</g>
</svg>
