<?xml version="1.0" standalone="no"?>
<!DOCTYPE svg PUBLIC "-//W3C//DTD SVG 20010904//EN"
 "http://www.w3.org/TR/2001/REC-SVG-20010904/DTD/svg10.dtd">
<svg version="1.0" xmlns="http://www.w3.org/2000/svg"
 width="512.000000pt" height="512.000000pt" viewBox="0 0 512.000000 512.000000"
 preserveAspectRatio="xMidYMid meet">

<g transform="translate(0.000000,512.000000) scale(0.100000,-0.100000)"
fill="#000000" stroke="none">
<path d="M1330 5104 c-113 -30 -198 -99 -275 -223 l-50 -80 -76 -1 c-292 -1
-500 -159 -563 -425 -24 -103 -366 -1909 -366 -1933 0 -11 11 -33 24 -49 14
-16 230 -159 480 -319 l456 -289 0 -208 c0 -166 3 -214 15 -237 33 -63 -26
-60 1092 -61 l1018 0 -55 -25 c-30 -14 -131 -46 -225 -70 -456 -121 -680 -237
-804 -417 -69 -101 -75 -133 -79 -419 -3 -219 -1 -261 12 -287 34 -64 -24 -61
1056 -61 714 0 987 3 1003 11 11 7 125 95 251 196 l231 185 5 -158 c8 -241 -2
-234 320 -234 254 0 276 4 305 60 13 26 15 215 13 1660 l-3 1632 -33 29 -32
29 -315 0 c-199 0 -315 4 -315 10 0 30 -111 916 -121 961 -20 95 -66 178 -143
255 -110 110 -204 150 -374 161 l-103 6 -50 77 c-82 129 -164 193 -286 225
-85 22 -1930 21 -2013 -1z m2005 -221 c22 -11 50 -32 61 -45 42 -45 102 -149
109 -187 5 -31 -70 -769 -79 -778 -1 -2 -78 15 -171 37 -152 36 -171 38 -200
26 -41 -18 -65 -52 -65 -93 0 -22 33 -99 95 -223 l95 -190 -202 -236 -203
-236 -3 480 -2 480 160 373 c97 228 160 386 160 406 0 22 -10 43 -29 65 l-29
33 -726 3 c-636 2 -730 0 -756 -13 -41 -21 -55 -54 -51 -116 1 -9 96 -181 211
-384 l210 -368 -2 -485 -3 -485 -198 232 c-109 127 -200 238 -203 245 -3 8 36
95 85 195 105 208 112 242 62 292 -39 39 -75 38 -257 -7 -79 -20 -146 -35
-148 -33 -1 2 -21 171 -43 376 -31 281 -39 382 -32 413 13 57 94 176 141 207
21 15 56 30 76 34 20 4 456 6 967 5 l930 -1 40 -22z m-2375 -297 c0 -9 90
-817 96 -855 8 -60 49 -101 99 -101 30 0 141 24 218 46 13 4 2 -25 -43 -117
-58 -118 -67 -149 -54 -184 4 -9 150 -184 325 -388 l319 -372 0 -563 0 -562
-372 2 -373 3 -3 72 c-2 40 0 73 3 73 3 0 23 -9 45 -20 49 -25 77 -25 115 -1
24 15 63 85 204 368 171 345 173 350 162 386 -7 20 -23 45 -36 55 -13 10 -130
79 -259 153 l-236 134 0 262 0 263 -28 31 c-22 25 -37 32 -68 33 -71 1 -84
-15 -209 -264 -121 -242 -131 -276 -99 -325 10 -16 148 -100 354 -217 l338
-192 -111 -223 c-107 -213 -112 -222 -132 -209 -11 7 -238 152 -503 321 -275
175 -482 313 -482 321 0 48 352 1850 368 1887 23 51 85 117 134 143 40 22 128
42 186 43 23 1 42 -1 42 -3z m1857 -13 c-2 -10 -60 -146 -128 -303 l-124 -285
-3 -1248 -2 -1247 -213 2 -212 3 -5 1250 -5 1250 -167 290 c-93 159 -168 293
-168 297 0 4 232 8 516 8 487 0 516 -1 511 -17z m1065 -3 c82 -23 177 -123
202 -213 16 -56 125 -935 117 -942 -2 -3 -141 -5 -308 -5 l-303 0 -32 -29 -33
-29 -3 -931 -2 -931 -373 2 -372 3 -2 565 -3 565 320 373 c375 436 351 386
265 561 -30 62 -55 114 -55 116 0 1 42 -8 93 -21 50 -13 108 -24 128 -24 47 0
86 31 99 78 9 31 100 826 100 870 0 12 11 14 63 8 34 -3 79 -11 99 -16z m1028
-1475 l0 -105 -267 -2 -268 -3 0 -105 0 -105 268 -3 267 -2 0 -905 0 -905
-215 0 -215 0 0 -105 0 -105 213 -2 212 -3 3 -52 3 -53 -228 0 c-205 0 -231
-2 -258 -19 -16 -10 -140 -107 -275 -215 l-245 -196 -885 2 -885 3 0 175 c0
162 2 178 23 222 36 73 125 148 244 206 130 64 231 99 451 157 143 37 233 70
498 180 245 103 331 143 352 165 26 30 27 33 27 155 l0 125 215 0 215 0 0 105
0 105 -212 2 -213 3 -3 53 -3 52 215 0 216 0 0 105 0 105 -212 2 -213 3 -3
533 -2 532 590 0 590 0 0 -105z m-5 -2775 l0 -105 -105 0 -105 0 -3 94 c-1 52
0 101 2 108 4 11 29 13 108 11 l103 -3 0 -105z"/>
<path d="M4054 2977 c-2 -7 -3 -56 -2 -108 l3 -94 105 0 105 0 0 105 0 105
-103 3 c-79 2 -104 0 -108 -11z"/>
</g>
</svg>
