<?xml version="1.0" standalone="no"?>
<!DOCTYPE svg PUBLIC "-//W3C//DTD SVG 20010904//EN"
 "http://www.w3.org/TR/2001/REC-SVG-20010904/DTD/svg10.dtd">
<svg version="1.0" xmlns="http://www.w3.org/2000/svg"
 width="512.000000pt" height="512.000000pt" viewBox="0 0 512.000000 512.000000"
 preserveAspectRatio="xMidYMid meet">

<g transform="translate(0.000000,512.000000) scale(0.100000,-0.100000)"
fill="#000000" stroke="none">
<path d="M666 4945 c-246 -63 -426 -293 -426 -545 0 -179 95 -362 238 -457
l58 -39 -18 -69 c-56 -224 -47 -496 23 -710 32 -95 102 -234 158 -310 45 -61
50 -71 35 -80 -360 -219 -551 -474 -623 -833 -43 -213 -37 -321 25 -444 37
-73 124 -161 198 -199 l62 -32 -24 -66 c-105 -290 -42 -612 162 -815 224 -225
545 -246 794 -53 30 22 66 55 81 73 l27 33 63 -25 c173 -70 348 -70 521 -1
l61 25 53 -53 c208 -208 499 -242 746 -87 77 48 168 146 215 230 l40 72 928 0
928 0 24 25 25 24 0 591 0 591 -25 24 -24 25 -256 0 -255 0 0 533 0 533 -295
422 c-222 316 -302 423 -320 428 -59 15 -63 10 -370 -428 l-295 -422 0 -260 0
-259 -75 81 c-88 95 -170 161 -277 227 -43 25 -78 48 -78 50 0 2 24 37 53 78
198 275 266 669 177 1010 -12 43 -15 73 -9 75 5 2 35 23 67 47 144 108 232
304 218 480 -32 405 -448 643 -808 463 -89 -45 -178 -125 -221 -199 l-27 -45
-72 18 c-235 61 -529 62 -759 4 l-89 -22 -36 54 c-103 155 -255 240 -444 248
-63 2 -115 -1 -154 -11z m296 -182 c73 -35 119 -71 160 -127 l28 -39 -72 -40
c-184 -99 -347 -259 -448 -439 -17 -32 -35 -58 -39 -58 -4 0 -26 16 -49 36
-186 158 -188 443 -6 603 118 103 288 129 426 64z m1922 -1 c89 -42 149 -100
191 -186 79 -160 49 -333 -80 -463 -30 -29 -58 -53 -63 -53 -4 0 -35 44 -68
97 -99 162 -252 306 -432 405 l-62 35 28 39 c52 71 142 132 229 154 71 18 186
5 257 -28z m-856 -227 c232 -45 417 -142 564 -293 202 -207 302 -484 284 -782
-26 -434 -281 -775 -682 -910 -313 -106 -701 -88 -983 45 -273 130 -458 353
-538 653 -24 87 -27 115 -27 272 0 157 3 185 27 272 111 414 417 679 873 753
112 18 366 13 482 -10z m2013 -1282 c107 -152 196 -280 197 -285 2 -4 -177 -8
-398 -8 -221 0 -400 4 -398 8 8 21 392 562 398 562 4 0 94 -125 201 -277z
m279 -933 l0 -480 -449 0 -450 0 -11 58 c-6 31 -20 84 -31 116 -17 55 -19 91
-19 423 l0 363 480 0 480 0 0 -480z m-3375 247 c39 -29 107 -71 152 -95 l82
-43 -55 -80 c-136 -201 -209 -411 -239 -694 l-6 -61 -57 -13 c-87 -20 -204
-85 -274 -153 -63 -60 -63 -60 -98 -48 -93 34 -177 126 -201 223 -25 100 23
349 97 506 93 199 256 369 458 477 33 19 63 34 66 34 3 0 37 -24 75 -53z
m1786 10 c314 -179 499 -463 539 -828 15 -136 -8 -217 -85 -294 -33 -32 -122
-85 -144 -85 -5 0 -36 26 -70 59 -69 67 -187 132 -273 152 l-57 13 -6 61 c-30
283 -103 493 -240 694 l-54 81 52 26 c61 31 180 107 220 140 16 13 32 24 36
24 3 0 40 -19 82 -43z m-1251 -233 c176 -33 422 -28 620 12 l75 16 28 -34
c149 -175 241 -406 272 -688 l6 -55 -58 -14 c-181 -41 -364 -205 -440 -392
-76 -189 -82 -373 -17 -572 15 -43 24 -80 21 -83 -2 -2 -31 -14 -63 -26 -84
-31 -244 -31 -328 0 -32 12 -61 24 -63 26 -3 3 6 40 21 83 65 198 59 383 -17
572 -76 187 -259 351 -440 392 l-57 14 6 60 c27 264 116 492 263 673 31 39 38
43 65 37 17 -4 65 -13 106 -21z m2280 -1144 l0 -480 -289 0 -288 0 8 43 c4 23
8 59 9 80 l0 37 175 0 c173 0 176 0 200 25 l25 24 0 271 0 271 -25 24 c-21 22
-33 25 -92 25 l-69 0 16 80 15 80 158 0 157 0 0 -480z m1120 0 l0 -480 -480 0
-480 0 0 480 0 480 480 0 480 0 0 -480z m-3815 225 c214 -56 375 -290 375
-545 0 -159 -63 -315 -169 -421 -143 -142 -327 -177 -499 -93 -82 40 -180 141
-225 234 -208 423 111 930 518 825z m1600 0 c214 -56 375 -290 375 -545 0
-159 -63 -315 -169 -421 -186 -185 -436 -185 -622 0 -218 218 -225 602 -14
829 119 129 273 177 430 137z m775 -225 l0 -160 -127 0 -128 1 -31 93 -31 94
48 23 c26 12 69 41 96 65 46 41 51 43 111 44 l62 0 0 -160z"/>
<path d="M1225 3735 c-65 -64 14 -168 94 -125 31 16 46 65 31 100 -23 55 -84
67 -125 25z"/>
<path d="M2185 3735 c-65 -64 14 -168 94 -125 31 16 46 65 31 100 -23 55 -84
67 -125 25z"/>
<path d="M1543 3579 c-22 -11 -54 -39 -70 -61 -24 -35 -28 -51 -28 -108 0 -89
25 -126 143 -209 l92 -65 0 -124 0 -125 -45 6 c-178 25 -355 192 -355 334 0
31 -25 79 -45 87 -33 12 -67 5 -92 -20 -24 -24 -25 -30 -20 -96 13 -159 129
-312 297 -395 103 -51 178 -71 290 -79 329 -24 631 172 682 442 18 96 -9 154
-72 154 -47 0 -75 -35 -84 -104 -16 -141 -131 -258 -305 -310 -95 -28 -91 -33
-91 107 l0 123 99 72 c69 50 103 82 116 108 38 81 29 156 -28 221 -50 57 -75
63 -269 63 -154 0 -177 -2 -215 -21z m373 -161 c7 -24 -5 -36 -104 -105 l-53
-36 -72 50 c-78 55 -93 72 -84 97 6 14 27 16 156 16 145 0 150 -1 157 -22z"/>
<path d="M3740 2624 c-192 -70 -273 -277 -179 -455 36 -67 68 -98 143 -137 43
-22 64 -26 136 -27 79 0 90 3 150 36 231 127 222 456 -15 568 -65 31 -172 38
-235 15z m163 -158 c104 -43 128 -175 47 -256 -66 -66 -156 -67 -221 -1 -124
123 13 325 174 257z"/>
<path d="M4357 1509 c-23 -14 -277 -521 -277 -554 0 -14 11 -37 25 -50 l24
-25 271 0 271 0 24 25 c14 13 25 36 25 50 0 35 -255 541 -279 555 -25 13 -61
12 -84 -1z m101 -364 l52 -105 -110 0 -110 0 52 105 c29 58 55 105 58 105 3 0
29 -47 58 -105z"/>
</g>
</svg>
